<svg width="19" height="16" viewBox="0 0 19 16" fill="none" xmlns="http://www.w3.org/2000/svg">
<path d="M17.7247 6.962C18.1543 7.582 18.1543 8.419 17.7247 9.038C16.3713 10.987 13.1243 15 9.33341 15C5.54253 15 2.29553 10.987 0.942157 9.038C0.733108 8.74113 0.619629 8.37592 0.619629 8C0.619629 7.62408 0.733108 7.25887 0.942157 6.962C2.29553 5.013 5.54253 1 9.33341 1C13.1243 1 16.3713 5.013 17.7247 6.962V6.962Z" stroke="white" stroke-width="1.1" stroke-linecap="round" stroke-linejoin="round"/>
<path d="M9.33418 11C10.8361 11 12.0536 9.65685 12.0536 8C12.0536 6.34315 10.8361 5 9.33418 5C7.83228 5 6.61475 6.34315 6.61475 8C6.61475 9.65685 7.83228 11 9.33418 11Z" stroke="white" stroke-width="1.1" stroke-linecap="round" stroke-linejoin="round"/>
</svg>
