<svg width="20" height="16" viewBox="0 0 20 16" fill="none" xmlns="http://www.w3.org/2000/svg">
<path d="M18.2413 6.962C18.6696 7.582 18.6696 8.419 18.2413 9.038C16.8925 10.987 13.6563 15 9.87808 15C6.09984 15 2.86367 10.987 1.51481 9.038C1.30646 8.74113 1.19336 8.37592 1.19336 8C1.19336 7.62408 1.30646 7.25887 1.51481 6.962C2.86367 5.013 6.09984 1 9.87808 1C13.6563 1 16.8925 5.013 18.2413 6.962V6.962Z" stroke="white" stroke-width="1.1" stroke-linecap="round" stroke-linejoin="round"/>
<path d="M9.87882 11C11.3757 11 12.5892 9.65685 12.5892 8C12.5892 6.34315 11.3757 5 9.87882 5C8.38193 5 7.16846 6.34315 7.16846 8C7.16846 9.65685 8.38193 11 9.87882 11Z" stroke="white" stroke-width="1.1" stroke-linecap="round" stroke-linejoin="round"/>
</svg>
