<svg width="142" height="40" viewBox="0 0 142 40" fill="none" xmlns="http://www.w3.org/2000/svg">
    <path d="M0.47 15.334C0.47 19.45 3.242 20.92 6.812 21.802L10.424 22.684C12.608 23.23 13.952 23.482 13.952 25.036C13.952 26.296 12.566 27.262 10.382 27.262C5.846 27.262 5.594 23.482 2.948 23.482C1.226 23.482 0.47 24.7 0.47 26.044C0.47 29.068 5.09 31.546 10.634 31.546C15.254 31.546 20.084 29.236 20.084 24.238C20.084 19.954 15.926 18.484 12.44 17.686L9.878 17.098C7.988 16.678 6.602 16.342 6.602 14.914C6.602 13.612 7.988 13.024 10.13 13.024C13.994 13.024 14.078 15.838 16.472 15.838C18.068 15.838 19.034 14.578 19.034 13.15C19.034 10.336 14.33 8.488 9.668 8.488C5.426 8.488 0.47 10.336 0.47 15.334ZM26.4306 28.48C26.4306 30.118 27.1026 31.546 29.4966 31.546C31.8906 31.546 32.5626 30.118 32.5626 28.48V11.554C32.5626 9.916 31.8906 8.488 29.4966 8.488C27.1026 8.488 26.4306 9.916 26.4306 11.554V28.48ZM26.3046 3.238C26.3046 5.002 27.7326 6.43 29.4966 6.43C31.2606 6.43 32.6886 5.002 32.6886 3.238C32.6886 1.474 31.2606 0.045998 29.4966 0.045998C27.7326 0.045998 26.3046 1.474 26.3046 3.238ZM39.884 28.48C39.884 30.118 40.556 31.546 42.95 31.546C45.344 31.546 46.016 30.118 46.016 28.48V18.358C46.016 15.292 48.536 13.528 50.678 13.528C53.324 13.528 54.542 15.292 54.542 17.77V28.48C54.542 30.118 55.214 31.546 57.608 31.546C60.002 31.546 60.674 30.118 60.674 28.48V16.552C60.674 10.336 56.642 8.488 52.946 8.488C49.46 8.488 47.234 10.084 45.512 12.352H45.428V11.554C45.428 9.706 44.588 8.488 42.656 8.488C40.724 8.488 39.884 9.706 39.884 11.554V28.48ZM88.0298 14.788C88.0298 10.378 83.9558 8.488 78.0758 8.488C71.7758 8.488 68.3318 11.596 68.3318 14.032C68.3318 15.292 69.3818 16.384 70.9358 16.384C73.3718 16.384 73.4978 13.024 78.0338 13.024C80.0918 13.024 81.8978 13.78 81.8978 15.544C81.8978 17.308 80.7218 17.644 79.2518 17.812L75.5138 18.232C70.8098 18.778 66.9458 20.206 66.9458 25.288C66.9458 29.152 70.3898 31.546 73.8758 31.546C77.1098 31.546 79.8818 30.622 82.2758 27.976C82.3598 29.866 83.2418 31.546 85.8878 31.546C87.3578 31.546 88.6598 30.58 88.6598 29.194C88.6598 28.228 88.0298 27.64 88.0298 25.078V14.788ZM81.8978 23.062C81.8978 25.33 79.8398 27.514 76.4798 27.514C74.3798 27.514 73.0778 26.38 73.0778 24.994C73.0778 23.146 74.4638 22.348 77.0258 21.97L79.2518 21.634C79.9658 21.508 81.2258 21.298 81.8978 20.668V23.062ZM95.4356 36.628C95.4356 38.644 96.6536 39.694 98.5016 39.694C100.35 39.694 101.568 38.644 101.568 36.628V28.438H101.652C102.786 30.412 104.886 31.546 107.7 31.546C114.168 31.546 117.15 26.044 117.15 20.164C117.15 12.226 112.656 8.488 107.532 8.488C104.55 8.488 102.072 9.748 101.064 12.352H100.98V11.386C100.98 9.496 100.014 8.488 98.2076 8.488C96.3176 8.488 95.4356 9.496 95.4356 11.386V36.628ZM111.018 19.954C111.018 22.81 110.052 26.758 106.146 26.758C102.408 26.8 101.232 23.104 101.232 19.954C101.232 16.468 102.576 13.276 106.146 13.276C109.422 13.36 111.018 16.342 111.018 19.954ZM122.245 15.334C122.245 19.45 125.017 20.92 128.587 21.802L132.199 22.684C134.383 23.23 135.727 23.482 135.727 25.036C135.727 26.296 134.341 27.262 132.157 27.262C127.621 27.262 127.369 23.482 124.723 23.482C123.001 23.482 122.245 24.7 122.245 26.044C122.245 29.068 126.865 31.546 132.409 31.546C137.029 31.546 141.859 29.236 141.859 24.238C141.859 19.954 137.701 18.484 134.215 17.686L131.653 17.098C129.763 16.678 128.377 16.342 128.377 14.914C128.377 13.612 129.763 13.024 131.905 13.024C135.769 13.024 135.853 15.838 138.247 15.838C139.843 15.838 140.809 14.578 140.809 13.15C140.809 10.336 136.105 8.488 131.443 8.488C127.201 8.488 122.245 10.336 122.245 15.334Z" fill="#00AABB"/>
</svg>
