<svg width="27" height="25" viewBox="0 0 27 25" fill="none" xmlns="http://www.w3.org/2000/svg">
<g clip-path="url(#clip0_1334_3589)">
<path d="M23.7052 0.219112C23.392 0.241731 23.0845 0.314667 22.7948 0.435074H22.7909C22.5127 0.544508 21.1905 1.09652 19.1802 1.93325L11.9765 4.94414C6.80735 7.10377 1.72608 9.23047 1.72608 9.23047L1.78659 9.20722C1.78659 9.20722 1.43625 9.3215 1.07031 9.57039C0.84423 9.71316 0.64969 9.89996 0.498458 10.1195C0.318901 10.381 0.174475 10.7809 0.228146 11.1945C0.315973 11.8937 0.772673 12.313 1.10056 12.5445C1.43235 12.7788 1.74853 12.8883 1.74853 12.8883H1.75633L6.52143 14.4814C6.73514 15.1622 7.9735 19.2025 8.27113 20.1332C8.44679 20.6891 8.61756 21.0367 8.83127 21.3021C8.93472 21.4377 9.05572 21.551 9.20112 21.642C9.27671 21.6857 9.35731 21.7201 9.44118 21.7447L9.39239 21.7331C9.40703 21.7369 9.41874 21.7486 9.42947 21.7524C9.46851 21.7631 9.49486 21.767 9.54462 21.7747C10.299 22.0013 10.905 21.5365 10.905 21.5365L10.9391 21.5093L13.7525 18.9672L18.4678 22.5572L18.5752 22.6027C19.5579 23.0308 20.5532 22.7925 21.0792 22.3722C21.6091 21.949 21.815 21.4077 21.815 21.4077L21.8492 21.3205L25.493 2.79517C25.5964 2.33806 25.6228 1.91001 25.5086 1.49455C25.3909 1.07408 25.119 0.712444 24.7465 0.480591C24.4336 0.291856 24.0709 0.200759 23.7052 0.219112ZM23.6067 2.20442C23.6028 2.26543 23.6145 2.25865 23.5872 2.37583V2.38649L19.9775 20.7191C19.9619 20.7452 19.9355 20.8024 19.8633 20.8595C19.7872 20.9196 19.7267 20.9573 19.4095 20.8324L13.6422 16.4444L10.1584 19.5957L10.8903 14.9569L20.3132 6.24088C20.7016 5.88256 20.5718 5.80702 20.5718 5.80702C20.5991 5.36735 19.9853 5.67822 19.9853 5.67822L8.10329 12.9832L8.09938 12.9638L2.4043 11.0608V11.0569L2.38966 11.054C2.39965 11.0508 2.40942 11.0469 2.41894 11.0424L2.45017 11.0269L2.48042 11.0163C2.48042 11.0163 7.56559 8.88957 12.7347 6.72995C15.3227 5.6482 17.9301 4.5587 19.9355 3.71809C21.1248 3.22129 22.3154 2.72738 23.5071 2.23638C23.5872 2.20539 23.5491 2.20539 23.6067 2.20539V2.20442Z" fill="#25A4E3"/>
</g>
<defs>
<clipPath id="clip0_1334_3589">
<rect width="26.0228" height="24.1719" fill="white" transform="translate(0 0.560059)"/>
</clipPath>
</defs>
</svg>
